<svg width="179" height="61" viewBox="0 0 179 61" fill="none" xmlns="http://www.w3.org/2000/svg">
  <path d="M71 47.4487C65.7821 47.4487 61.5513 43.2023 61.5513 38C61.5513 32.7977 65.7977 28.5513 71 28.5513C76.2023 28.5513 80.4487 32.7977 80.4487 38C80.4487 43.2023 76.2023 47.4487 71 47.4487ZM71 16C58.8718 16 49 25.8718 49 38C49 50.1282 58.8718 60 71 60C83.1282 60 93 50.1282 93 38C93 25.8718 83.1282 16 71 16Z" fill="white"/>
  <path d="M171.704 31.9388C168.216 31.9388 165.375 34.7232 165.375 38.1764C165.375 43.3406 161.099 47.556 155.86 47.556C150.62 47.556 146.344 43.3406 146.344 38.1764V28.7967H157.375C160.862 28.7967 163.703 26.0124 163.703 22.5592C163.703 19.106 160.878 16.3216 157.375 16.3216H146.344V7.23754C146.344 3.79989 143.519 1 140.016 1C136.512 1 133.688 3.78434 133.688 7.23754V38.1608C133.688 43.3251 129.411 47.5405 124.172 47.5405C118.933 47.5405 114.656 43.3251 114.656 38.1608V22.5436C114.656 19.106 111.831 16.3061 108.328 16.3061C104.825 16.3061 102 19.0904 102 22.5436V38.1608C102 50.2004 111.942 60 124.156 60C130.358 60 135.976 57.4801 140 53.4047C144.024 57.4645 149.642 60 155.844 60C168.058 60 178 50.2004 178 38.1608C178 34.7232 175.175 31.9233 171.672 31.9233" fill="#EB6087"/>
  <path d="M44.9371 37.6555C45.046 25.8934 44.9838 19.6233 44.9682 7.87679C44.9682 3.83162 42.3087 1 38.6384 1C34.9835 1 32.3551 3.86274 32.3551 7.89235C32.3551 12.9799 32.3707 12.5754 32.3862 17.943C31.4842 17.6163 30.8777 17.3829 30.2711 17.1651C19.7265 13.4778 8.0777 18.2853 3.20977 28.3671C-1.6426 38.3867 1.71673 50.46 11.126 56.3566C18.389 60.9152 25.9942 61.2264 33.4749 57.119C41.0334 52.9649 44.8438 46.2748 44.9216 37.6555H44.9371ZM16.165 44.3922C12.7279 40.6738 12.8679 34.4971 16.4605 31.1365C20.2709 27.5892 26.3519 27.7604 29.8201 31.541C33.3038 35.3528 33.1172 41.2494 29.3846 44.719C25.6209 48.2196 19.571 48.064 16.1805 44.3922H16.165Z" fill="white"/>
  <path d="M102.487 9.96625C102.649 10.355 102.86 10.7438 103.087 11.1002C103.331 11.4566 103.591 11.7968 103.883 12.0884C104.175 12.38 104.516 12.6554 104.873 12.8984C105.213 13.1414 105.603 13.3358 106.009 13.4978C106.398 13.6598 106.804 13.7894 107.226 13.8704C107.648 13.9514 108.07 14 108.492 14C110.196 14 111.884 13.3034 113.101 12.1046C113.393 11.813 113.669 11.4728 113.913 11.1164C114.14 10.7762 114.351 10.3874 114.513 9.98246C114.675 9.59366 114.805 9.18867 114.886 8.76747C114.968 8.34628 115 7.92508 115 7.50389C115 7.0827 114.968 6.6615 114.886 6.22411C114.805 5.81911 114.675 5.39792 114.513 5.00912C114.351 4.62033 114.14 4.23153 113.913 3.89134C113.669 3.53494 113.393 3.19475 113.101 2.90315C111.592 1.39657 109.352 0.699982 107.242 1.12118C106.82 1.20217 106.414 1.33177 106.025 1.49377C105.635 1.65577 105.246 1.86637 104.889 2.09316C104.532 2.33616 104.191 2.61156 103.899 2.90315C103.607 3.19475 103.331 3.53494 103.104 3.89134C102.86 4.23153 102.665 4.62033 102.503 5.00912C102.341 5.39792 102.211 5.80291 102.13 6.22411C102.049 6.6453 102 7.0665 102 7.50389C102 7.94128 102.049 8.34628 102.13 8.76747C102.195 9.18867 102.325 9.59366 102.487 9.98246" fill="#EB6087"/>
</svg>
